PathFileType	4	(X/Y/Z)	/Users/itak/Documents/Research/Walk-IL/dataset/trc/00564_00009.trc
DataRate	CameraRate	NumFrames	NumMarkers	Units	OrigDataRate	OrigDataStartFrame	OrigNumFrames
100.000000	100.000000	4	53	mm	100.000000	62	503
Frame#	Time	RPSI			LPSI			L3			STRN			T10			C7			CLAV			RBAK			LBAK			LSHO			LUPA			LAEL			LAOL			LWTS			LWPS			LFRA			LHPS			LHTS			RSHO			RUPA			RAEL			RAOL			RWTS			RWPS			RFRA			RIFD			RHTS			RHPS			RBHD			LFHD			RFHD			LBHD			LHIP			RHIP			RASI			LASI			LKNE			LTHI			LANK			LTIP			LTOE			LMT1			LMT5			LHEE			RKNE			RTHI			RANK			RTIP			RTOE			RMT1			RMT5			RHEE			LIFD			
		X1	Y1	Z1	X2	Y2	Z2	X3	Y3	Z3	X4	Y4	Z4	X5	Y5	Z5	X6	Y6	Z6	X7	Y7	Z7	X8	Y8	Z8	X9	Y9	Z9	X10	Y10	Z10	X11	Y11	Z11	X12	Y12	Z12	X13	Y13	Z13	X14	Y14	Z14	X15	Y15	Z15	X16	Y16	Z16	X17	Y17	Z17	X18	Y18	Z18	X19	Y19	Z19	X20	Y20	Z20	X21	Y21	Z21	X22	Y22	Z22	X23	Y23	Z23	X24	Y24	Z24	X25	Y25	Z25	X26	Y26	Z26	X27	Y27	Z27	X28	Y28	Z28	X29	Y29	Z29	X30	Y30	Z30	X31	Y31	Z31	X32	Y32	Z32	X33	Y33	Z33	X34	Y34	Z34	X35	Y35	Z35	X36	Y36	Z36	X37	Y37	Z37	X38	Y38	Z38	X39	Y39	Z39	X40	Y40	Z40	X41	Y41	Z41	X42	Y42	Z42	X43	Y43	Z43	X44	Y44	Z44	X45	Y45	Z45	X46	Y46	Z46	X47	Y47	Z47	X48	Y48	Z48	X49	Y49	Z49	X50	Y50	Z50	X51	Y51	Z51	X52	Y52	Z52	X53	Y53	Z53	

63	0.62	-1128.100708007812	1015.311828613281	-291.9868469238281	-1110.376953125	1017.978515625	-424.5686645507812	-1110.009643554688	1108.034301757812	-360.7687377929688	-877.8640747070312	1285.660400390625	-347.2106628417969	-1120.246215820312	1233.393188476562	-362.6631774902344	-1062.670532226562	1505.83447265625	-345.4585876464844	-891.22021484375	1397.27197265625	-347.8194580078125	-1144.317626953125	1384.128173828125	-263.3639831542969	-1094.52978515625	1455.004150390625	-439.4197387695312	-991.7901000976562	1475.32568359375	-517.9828491210938	-1002.183837890625	1347.915771484375	-596.6717529296875	-984.7833251953125	1125.856567382812	-615.3970947265625	-1077.006469726562	1120.300170898438	-574.784423828125	-905.6253051757812	883.8584594726562	-550.6259765625	-940.9725952148438	859.4518432617188	-625.8064575195312	-963.028076171875	1039.116821289062	-617.4910278320312	-934.0061645507812	799.9182739257812	-615.5686645507812	-886.5261840820312	806.2886352539062	-566.949462890625	-1013.021118164062	1463.219482421875	-186.8943176269531	-1034.76611328125	1397.827880859375	-119.9035110473633	-1041.57861328125	1106.241577148438	-79.39527130126953	-1097.919067382812	1092.534057617188	-104.1631088256836	-921.2523803710938	879.6480102539062	-131.3465423583984	-963.3277587890625	860.09765625	-62.15012741088867	-1032.652954101562	1050.534790039062	-74.25666046142578	-923.1219482421875	705.6359252929688	-132.0375061035156	-897.2942504882812	786.4141235351562	-118.6341781616211	-950.49609375	784.6856689453125	-67.1337890625	-982.0264282226562	1682.467651367188	-275.9272155761719	-805.9420166015625	1691.684204101562	-386.1850891113281	-844.5709838867188	1687.048461914062	-247.2856292724609	-930.7640380859375	1685.112060546875	-433.4948120117188	-972.4501342773438	932.6697387695312	-539.794921875	-1023.554321289062	936.6619873046875	-157.8449859619141	-927.4640502929688	964.2341918945312	-204.9780426025391	-898.314453125	956.1536865234375	-480.5497131347656	-968.782958984375	488.8324279785156	-465.7380065917969	-958.734375	652.8277587890625	-506.4093017578125	-1088.138061523438	33.31534957885742	-455.0914306640625	-1050.57763671875	246.5552978515625	-469.0740661621094	-882.7360229492188	36.03096008300781	-375.0687866210938	-960.8677368164062	37.00595855712891	-346.5816040039062	-963.5062255859375	35.50855255126953	-453.0268249511719	-1162.4814453125	31.31330108642578	-406.668212890625	-1009.710998535156	492.1526184082031	-204.8573913574219	-990.069580078125	781.5355224609375	-156.8040008544922	-1147.470336914062	35.26725006103516	-234.0184326171875	-1025.783081054688	349.4076232910156	-218.6680145263672	-921.439697265625	38.16351699829102	-238.9236297607422	-976.6722412109375	38.99921417236328	-290.2628173828125	-1018.974304199219	36.72220611572266	-193.0109405517578	-1191.792114257812	26.45630645751953	-296.8788452148438	-910.1119995117188	715.841552734375	-553.1417236328125	
64	0.63	-1127.488037109375	1015.3984375	-292.6064147949219	-1109.7724609375	1017.967712402344	-425.2106323242188	-1109.215576171875	1108.142333984375	-361.43310546875	-876.5731201171875	1285.472290039062	-348.1915893554688	-1119.1171875	1233.531982421875	-363.4153137207031	-1061.075927734375	1505.871948242188	-346.3538818359375	-889.6475219726562	1397.150390625	-348.8255615234375	-1142.789428710938	1384.338989257812	-264.09228515625	-1093.072143554688	1455.067138671875	-440.2603759765625	-990.3369140625	1475.26513671875	-518.9141235351562	-1000.953918457031	1347.859985351562	-597.5805053710938	-983.8549194335938	1125.790405273438	-616.2870483398438	-1076.057983398438	1120.33447265625	-575.6209716796875	-904.7110595703125	883.8314819335938	-551.541015625	-940.3290405273438	859.2988891601562	-626.6423950195312	-962.1753540039062	1039.013427734375	-618.3671264648438	-933.4486083984375	799.7657470703125	-616.3974609375	-885.9337158203125	806.0640258789062	-567.7279663085938	-1011.308349609375	1463.273559570312	-187.8039245605469	-1033.04638671875	1397.93994140625	-120.7376098632812	-1040.205810546875	1106.375610351562	-80.14828491210938	-1096.619506835938	1092.726806640625	-104.7980728149414	-920.1130981445312	879.7000122070312	-132.0474700927734	-962.2179565429688	860.158935546875	-62.86001205444336	-1031.3251953125	1050.67919921875	-74.94197845458984	-922.2603149414062	705.6134033203125	-132.7149963378906	-896.2221069335938	786.41796875	-119.2704772949219	-949.4486694335938	784.7171630859375	-67.82975769042969	-980.3642578125	1682.361572265625	-276.87744140625	-804.3211059570312	1691.527587890625	-387.2515869140625	-842.8525390625	1686.93798828125	-248.3203735351562	-929.209716796875	1684.967041015625	-434.4756774902344	-972.0095825195312	932.5709228515625	-540.7484130859375	-1022.834106445312	936.579345703125	-158.5555877685547	-926.7686767578125	964.1688232421875	-205.8418884277344	-897.9028930664062	955.9628295898438	-481.4005432128906	-968.8944091796875	488.7464294433594	-466.2835693359375	-958.6817626953125	652.6774291992188	-507.0382995605469	-1088.176513671875	33.19496917724609	-455.2030334472656	-1050.562866210938	246.4620208740234	-469.4234924316406	-882.7849731445312	36.02468872070312	-375.075439453125	-960.9226684570312	37.01606750488281	-346.5513305664062	-963.5143432617188	35.51216888427734	-453.0190124511719	-1162.519287109375	31.17571258544922	-406.8333435058594	-1007.103088378906	492.0425415039062	-205.2369689941406	-988.89306640625	781.5341186523438	-157.38623046875	-1147.317016601562	35.53730773925781	-234.0977020263672	-1023.669494628906	349.1401062011719	-218.8814544677734	-921.3756103515625	38.14311599731445	-238.9614868164062	-976.6334838867188	39.02576446533203	-290.218017578125	-1018.948486328125	36.69895172119141	-192.9848937988281	-1191.686889648438	26.79201316833496	-296.9173278808594	-909.5639038085938	715.6712036132812	-553.9568481445312	
65	0.64	-1126.886596679688	1015.436706542969	-293.2375793457031	-1109.167358398438	1017.93359375	-425.8648071289062	-1108.443359375	1108.240356445312	-362.1108703613281	-875.27587890625	1285.253540039062	-349.1647033691406	-1117.983642578125	1233.652587890625	-364.1894226074219	-1059.45751953125	1505.887084960938	-347.2810974121094	-888.0633544921875	1397.001831054688	-349.8364868164062	-1141.255249023438	1384.538330078125	-264.839599609375	-1091.59228515625	1455.11376953125	-441.1285705566406	-988.8395385742188	1475.16796875	-519.8538208007812	-999.675048828125	1347.784545898438	-598.5086059570312	-982.8809204101562	1125.701049804688	-617.1990356445312	-1075.0732421875	1120.353759765625	-576.4971313476562	-903.7268676757812	883.7979125976562	-552.47802734375	-939.6220092773438	859.1243286132812	-627.4962768554688	-961.2837524414062	1038.892211914062	-619.2700805664062	-932.8272094726562	799.5938720703125	-617.2459716796875	-885.3055419921875	805.8116455078125	-568.5261840820312	-1009.583984375	1463.31591796875	-188.7294311523438	-1031.322143554688	1398.04931640625	-121.5801086425781	-1038.803588867188	1106.498413085938	-80.91885375976562	-1095.292358398438	1092.901977539062	-105.4447708129883	-918.9205322265625	879.761474609375	-132.7781219482422	-961.0453491210938	860.2171630859375	-63.59284591674805	-1029.965942382812	1050.816528320312	-75.63149261474609	-921.2637939453125	705.5973510742188	-133.4538879394531	-895.026611328125	786.46337890625	-119.934700012207	-948.315185546875	784.7625122070312	-68.54292297363281	-978.6483154296875	1682.217651367188	-277.843505859375	-802.6519775390625	1691.3251953125	-388.3232727050781	-841.1056518554688	1686.790771484375	-249.374755859375	-927.6087646484375	1684.79541015625	-435.4671630859375	-971.5924682617188	932.4773559570312	-541.7374877929688	-1022.111450195312	936.4678344726562	-159.2845458984375	-926.07763671875	964.0936279296875	-206.7283630371094	-897.4965209960938	955.7597045898438	-482.259033203125	-969.0000610351562	488.6253051757812	-466.8414916992188	-958.6385498046875	652.5513305664062	-507.6906127929688	-1088.200439453125	33.08670043945312	-455.3197631835938	-1050.520141601562	246.3545837402344	-469.7814636230469	-882.8385620117188	36.01559448242188	-375.087158203125	-960.9718627929688	37.03813171386719	-346.5254211425781	-963.5211791992188	35.51260375976562	-453.0172119140625	-1162.556762695312	31.0379638671875	-407.0060424804688	-1004.167419433594	491.9201354980469	-205.5989837646484	-987.5958251953125	781.504638671875	-158.0017700195312	-1147.142578125	35.85410690307617	-234.1804809570312	-1021.290893554688	348.8437805175781	-219.0962982177734	-921.3217163085938	38.1225471496582	-238.9893493652344	-976.588623046875	39.06082916259766	-290.1654968261719	-1018.921020507812	36.67060470581055	-192.9601135253906	-1191.553588867188	27.20162391662598	-296.9769287109375	-908.9835205078125	715.4714965820312	-554.7913818359375	
66	0.65	-1126.299926757812	1015.415710449219	-293.8753662109375	-1108.566040039062	1017.875061035156	-426.5300903320312	-1107.693969726562	1108.325805664062	-362.8016967773438	-873.9730224609375	1284.9990234375	-350.1244201660156	-1116.85107421875	1233.751953125	-364.9801025390625	-1057.816650390625	1505.876220703125	-348.2334289550781	-886.470703125	1396.82421875	-350.8456115722656	-1139.71826171875	1384.72021484375	-265.603759765625	-1090.090454101562	1455.141845703125	-442.0217590332031	-987.2985229492188	1475.030883789062	-520.7974853515625	-998.3449096679688	1347.682983398438	-599.4520874023438	-981.85888671875	1125.581787109375	-618.1307373046875	-1074.05126953125	1120.351806640625	-577.4137573242188	-902.6927490234375	883.7427978515625	-553.4354858398438	-938.8551025390625	858.9246215820312	-628.3724975585938	-960.3505859375	1038.748291015625	-620.1973266601562	-932.1417846679688	799.4007568359375	-618.1197509765625	-884.639892578125	805.5455932617188	-569.3690185546875	-1007.855590820312	1463.34228515625	-189.6644897460938	-1029.600463867188	1398.150390625	-122.4291763305664	-1037.380615234375	1106.6064453125	-81.69477844238281	-1093.939575195312	1093.055297851562	-106.1037826538086	-917.6985473632812	879.8120727539062	-133.5404205322266	-959.81103515625	860.27099609375	-64.34559631347656	-1028.583740234375	1050.939575195312	-76.32916259765625	-920.1328735351562	705.593505859375	-134.2440643310547	-893.7410888671875	786.5250854492188	-120.6435852050781	-947.0989990234375	784.8148193359375	-69.27234649658203	-976.8750610351562	1682.034545898438	-278.8207092285156	-800.935302734375	1691.068237304688	-389.3961486816406	-839.3276977539062	1686.59912109375	-250.4468688964844	-925.9591674804688	1684.591552734375	-436.4671630859375	-971.2080688476562	932.3931884765625	-542.7529907226562	-1021.374572753906	936.3243408203125	-160.0445251464844	-925.3853149414062	964.0228271484375	-207.6200256347656	-897.105224609375	955.5387573242188	-483.1205749511719	-969.0946044921875	488.4685668945312	-467.4306335449219	-958.5909423828125	652.4382934570312	-508.3638305664062	-1088.211303710938	32.98666000366211	-455.4454956054688	-1050.461181640625	246.2400970458984	-470.1516418457031	-882.8968505859375	36.00421142578125	-375.1064758300781	-961.0110473632812	37.07623672485352	-346.5069580078125	-963.52734375	35.5089111328125	-453.024658203125	-1162.593627929688	30.90142631530762	-407.1844177246094	-1000.878051757812	491.7921447753906	-205.9335021972656	-986.1806030273438	781.447021484375	-158.6417083740234	-1146.950927734375	36.23249816894531	-234.2671508789062	-1018.636108398438	348.5282897949219	-219.2997131347656	-921.2786865234375	38.10017013549805	-239.0029449462891	-976.5327758789062	39.10633087158203	-290.1029357910156	-1018.889770507812	36.63648223876953	-192.9395904541016	-1191.390747070312	27.71847343444824	-297.0634460449219	-908.3683471679688	715.2526245117188	-555.6694946289062	
